<?xml version="1.0" encoding="UTF-8"?>
<svg width="263" height="50" fill="none" version="1.1" xmlns="http://www.w3.org/2000/svg">
 <path d="M176.71 21.165c-.815 0-1.515-.21-2.1-.63-.585-.425-1.035-1.003-1.35-1.733-.31-.735-.465-1.572-.465-2.512 0-1.02.173-1.877.518-2.572.35-.7.82-1.23 1.41-1.59a3.763 3.763 0 0 1 1.987-.54c.945 0 1.715.24 2.31.72a3.92 3.92 0 0 1 1.282 1.867l-.944.21c-.21-.625-.553-1.117-1.028-1.477a2.569 2.569 0 0 0-1.62-.548 2.62 2.62 0 0 0-1.47.45c-.45.295-.815.735-1.095 1.32-.275.585-.412 1.305-.412 2.16 0 .765.105 1.457.315 2.078.215.615.542 1.105.982 1.47.44.36 1 .54 1.68.54.8 0 1.44-.215 1.92-.645.485-.43.728-1.003.728-1.718h.967c0 .65-.155 1.21-.465 1.68a3.04 3.04 0 0 1-1.282 1.087c-.545.256-1.168.383-1.868.383Zm9.038 0c-.74 0-1.405-.175-1.995-.525-.59-.35-1.057-.878-1.402-1.582-.345-.71-.518-1.598-.518-2.663 0-1.08.173-1.975.518-2.685.345-.715.812-1.248 1.402-1.598.59-.35 1.255-.524 1.995-.524.735 0 1.398.177 1.988.532.59.35 1.057.883 1.402 1.598.345.71.518 1.602.518 2.677s-.173 1.965-.518 2.67c-.345.705-.812 1.232-1.402 1.582a3.866 3.866 0 0 1-1.988.518Zm0-.817c.93 0 1.663-.333 2.198-.998.535-.67.802-1.66.802-2.97 0-1.29-.267-2.28-.802-2.97-.535-.695-1.268-1.043-2.198-1.043-.925 0-1.657.348-2.197 1.043s-.81 1.69-.81 2.985c0 1.305.27 2.29.81 2.955s1.272.997 2.197.997Zm9.404.817c-.74 0-1.405-.175-1.995-.525-.59-.35-1.057-.878-1.402-1.582-.345-.71-.518-1.598-.518-2.663 0-1.08.173-1.975.518-2.685.345-.715.812-1.248 1.402-1.598.59-.35 1.255-.524 1.995-.524.735 0 1.398.177 1.988.532.59.35 1.057.883 1.402 1.598.345.71.518 1.602.518 2.677s-.173 1.965-.518 2.67c-.345.705-.812 1.232-1.402 1.582a3.866 3.866 0 0 1-1.988.518Zm0-.817c.93 0 1.663-.333 2.198-.998.535-.67.802-1.66.802-2.97 0-1.29-.267-2.28-.802-2.97-.535-.695-1.268-1.043-2.198-1.043-.925 0-1.657.348-2.197 1.043s-.81 1.69-.81 2.985c0 1.305.27 2.29.81 2.955s1.272.997 2.197.997Zm6.247.652v-9.262h2.828c1.005 0 1.765.257 2.28.772.515.515.772 1.195.772 2.04 0 .835-.257 1.508-.772 2.017-.515.506-1.275.758-2.28.758h-1.943V21h-.885Zm.885-4.433h1.943c.705 0 1.24-.177 1.605-.532.37-.36.555-.855.555-1.485 0-.64-.185-1.145-.555-1.515-.365-.37-.9-.555-1.605-.555h-1.943v4.087ZM209.507 21v-9.262h5.58v.742h-4.71v3.465h4.44v.742h-4.44v3.555h4.71V21h-5.58Zm8.262 0v-9.262h3.128c1.03 0 1.802.25 2.317.75.52.495.78 1.142.78 1.942 0 .795-.26 1.443-.78 1.942-.515.495-1.287.743-2.317.743h-2.258V21h-.87Zm5.288 0-2.76-4.133h.967l2.91 4.133h-1.117Zm-4.418-4.53h2.213c.735 0 1.292-.185 1.672-.555.385-.375.578-.86.578-1.455 0-.61-.19-1.093-.57-1.448-.375-.354-.92-.532-1.635-.532h-2.258v3.99Zm6.926 4.53 3.202-9.262h1.028L232.952 21h-.915l-.855-2.573h-3.817L226.472 21h-.907Zm2.025-3.277h3.352l-1.68-4.905-1.672 4.905Zm5.291-5.243v-.742h7.103v.742h-3.323l.195-.203V21h-.87v-8.723l.195.203h-3.3Zm8.765 8.52v-9.262h.87V21h-.87Zm6.436-.9 2.94-8.363h.938L248.592 21h-.892l-3.345-9.262h.93l2.932 8.362h-.135Zm5.707.9v-9.262h5.58v.742h-4.71v3.465h4.44v.742h-4.44v3.555h4.71V21h-5.58ZM173.56 39v-9.262h5.58v.742h-4.71v3.465h4.44v.742h-4.44v3.556h4.71V39h-5.58Zm8.285 0 3.255-4.597-3.293-4.665h1.028l2.842 4.005 2.67-4.006h1.065l-3.262 4.658L189.427 39h-1.05l-2.812-3.915L182.887 39h-1.042Zm13.914.165c-.815 0-1.515-.21-2.1-.63-.585-.425-1.035-1.002-1.35-1.732-.31-.735-.465-1.573-.465-2.513 0-1.02.172-1.877.517-2.572.35-.7.82-1.23 1.41-1.59a3.767 3.767 0 0 1 1.988-.54c.945 0 1.715.24 2.31.72a3.92 3.92 0 0 1 1.282 1.867l-.945.21c-.21-.625-.552-1.117-1.027-1.477a2.569 2.569 0 0 0-1.62-.548 2.62 2.62 0 0 0-1.47.45c-.45.295-.815.735-1.095 1.32-.275.585-.413 1.305-.413 2.16 0 .765.105 1.458.315 2.078.215.614.543 1.104.983 1.47.44.36 1 .54 1.68.54.8 0 1.44-.215 1.92-.645.485-.43.727-1.003.727-1.718h.968c0 .65-.155 1.21-.465 1.68-.31.47-.738.833-1.283 1.087-.545.256-1.167.383-1.867.383Zm6.638-.165v-9.262h5.58v.742h-4.71v3.465h4.44v.742h-4.44v3.556h4.71V39h-5.58Zm9.882-9.262v8.505h4.297V39h-5.167v-9.262h.87Zm7.562 0v8.505h4.297V39h-5.167v-9.262h.87ZM226.517 39v-9.262h5.58v.742h-4.71v3.465h4.44v.742h-4.44v3.556h4.71V39h-5.58Zm9.005-9.262h1.125l4.965 8.16h-.09v-8.16h.87V39h-1.058l-5.07-8.332h.128V39h-.87v-9.262Zm13.912 9.427c-.815 0-1.515-.21-2.1-.63-.585-.425-1.035-1.002-1.35-1.732-.31-.735-.465-1.573-.465-2.513 0-1.02.172-1.877.517-2.572.35-.7.82-1.23 1.41-1.59a3.767 3.767 0 0 1 1.988-.54c.945 0 1.715.24 2.31.72a3.92 3.92 0 0 1 1.282 1.867l-.945.21c-.21-.625-.552-1.117-1.027-1.477a2.569 2.569 0 0 0-1.62-.548 2.62 2.62 0 0 0-1.47.45c-.45.295-.815.735-1.095 1.32-.275.585-.413 1.305-.413 2.16 0 .765.105 1.458.315 2.078.215.614.543 1.104.983 1.47.44.36 1 .54 1.68.54.8 0 1.44-.215 1.92-.645.485-.43.727-1.003.727-1.718h.968c0 .65-.155 1.21-.465 1.68-.31.47-.738.833-1.283 1.087-.545.256-1.167.383-1.867.383Zm6.638-.165v-9.262h5.58v.742h-4.71v3.465h4.44v.742h-4.44v3.556h4.71V39h-5.58Z" fill="#036"/>
 <path d="m157 0v50" stroke="#036" stroke-width=".5"/>
 <g transform="translate(-3.4191)" stroke-width=".075168">
  <path d="m20.88 21.403-0.16762-6.5562h-17.148l-0.14507 6.5562h1.8679c0-1.5665 0.31345-2.7188 0.9396-3.457 0.62615-0.73815 1.4763-1.1185 2.5505-1.1298h1.2974v13.906c0 0.77198-0.07817 1.3312-0.23528 1.6785-0.15635 0.34652-0.39162 0.57052-0.68252 0.67125-0.2909 0.10073-0.65998 0.15635-1.0854 0.1789v1.913h8.2662v-2.2378c-0.19018 0-0.5367 0-1.029 0.01126-0.50363 0-0.90577 0.03383-1.2305 0.07817 0.03383-0.2458 0.0669-0.61563 0.08946-1.1072 0.02254-0.48108 0.02254-0.9847 0.02254-1.5101v-13.615h1.3538c0.7156-0.02254 1.3312 0.14507 1.8566 0.48108 0.5149 0.336 0.91705 0.85015 1.208 1.544 0.27962 0.68252 0.4247 1.5552 0.4247 2.5956h1.8679-0.02256zm11.286 13.761v-2.2378c-0.13455 0-0.3578 0-0.65997 0.01126-0.31345 0-0.62615 0.02256-0.95088 0.03383-0.32472 0-0.5818 0.02256-0.79452 0.04509 0.03383-0.2458 0.0669-0.61563 0.08945-1.1072 0.02256-0.48108 0.02256-0.99598 0.02256-1.544v-3.1104h1.4763c0.19018 0.19018 0.36908 0.42545 0.54798 0.6938 0.1789 0.26835 0.39162 0.60435 0.63742 0.9847l2.0919 3.4795c0.38035 0.61563 0.72688 1.1636 1.0629 1.6447 0.32473 0.4698 0.67125 0.83888 1.0065 1.0854h4.6649v-1.913c-0.41418-0.02254-0.78325-0.12328-1.1072-0.30218-0.32473-0.1789-0.63742-0.4698-0.96215-0.85015-0.32472-0.39162-0.6938-0.90652-1.1072-1.5665l-1.3312-2.0363c-0.2458-0.39162-0.5367-0.74942-0.89525-1.1072-0.34652-0.34652-0.70508-0.60435-1.0629-0.74942 1.1072-0.32472 2.0355-0.77198 2.7632-1.3312 0.72762-0.55925 1.2748-1.208 1.6447-1.9468 0.36908-0.73815 0.55925-1.5101 0.5818-2.3272 0.03383-1.544-0.26835-2.7744-0.92832-3.6923-0.65997-0.90652-1.5996-1.5665-2.8301-1.9694-1.2305-0.4029-2.6737-0.60435-4.3289-0.5818-1.3425 0.02256-2.685 0.03383-4.0155 0.03383-1.3305 0-2.6737 0-4.0155 0.03383v2.2378c0.21272-0.02256 0.5367-0.03383 0.99522-0.0451 0.45852-0.01126 0.8276-0.02256 1.1298-0.04509-0.02256 0.2458-0.04509 0.61563-0.0669 1.1072-0.03383 0.48108-0.04509 0.9847-0.04509 1.5101v11.12c0 0.77198-0.07817 1.3312-0.23528 1.6785-0.15635 0.34652-0.39162 0.57052-0.68252 0.67125-0.2909 0.10073-0.65998 0.15635-1.0854 0.1789v1.913h8.4008-0.01126zm-1.6447-10.036c-0.224-0.03383-0.44725-0.05563-0.6487-0.0669v-5.9518c0-0.68253 0.07817-1.1862 0.224-1.5101 0.15635-0.32472 0.36908-0.5367 0.6487-0.63742 0.27962-0.10072 0.62615-0.14507 1.0178-0.14507 0.27962 0 0.63742 0.03383 1.0742 0.10072 0.43597 0.0669 0.86142 0.23528 1.2861 0.49235 0.4247 0.25708 0.78325 0.65997 1.0629 1.1862 0.27962 0.5367 0.4247 1.2643 0.4247 2.1926 0 0.9847-0.14507 1.801-0.43597 2.4505-0.2909 0.6487-0.7607 1.1298-1.3981 1.4545-0.63742 0.32473-1.4876 0.48108-2.5504 0.48108-0.2458 0-0.48107-0.01125-0.70508-0.04509zm21.366-10.293h-8.1211v2.2378c0.20145-0.02256 0.5367-0.03383 0.99522-0.04509s0.8276-0.02256 1.1298-0.0451c-0.02256 0.2458-0.0451 0.61563-0.0669 1.1072-0.02256 0.48107-0.0451 0.9847-0.0451 1.5101v7.026c0 1.2418 0.12328 2.3941 0.38035 3.4795 0.25708 1.0854 0.6938 2.0476 1.2974 2.8752 0.61487 0.8276 1.4432 1.4771 2.5053 1.9469 1.0516 0.4698 2.3716 0.6938 3.9598 0.6938 1.1298 0 2.1814-0.15635 3.1435-0.48107 0.96215-0.32473 1.801-0.83888 2.5166-1.5552 0.7156-0.71635 1.2748-1.656 1.6665-2.8196 0.39162-1.1636 0.59308-2.573 0.59308-4.2402v-7.2605c0-0.79453 0.07817-1.3651 0.23528-1.7003 0.15635-0.336 0.39162-0.55925 0.6938-0.6487 0.30217-0.10072 0.65997-0.15635 1.0741-0.1789v-1.913h-6.5659v2.2378c0.20145-0.02255 0.5367-0.03383 1.0065-0.04509 0.45852 0 0.83887-0.02256 1.141-0.0451-0.03383 0.2458-0.0669 0.61562-0.08946 1.1072-0.02256 0.48107-0.03383 0.9847-0.03383 1.5101v7.6078c0 1.4319-0.20145 2.6068-0.59308 3.5464-0.39162 0.9396-0.96215 1.6109-1.7003 2.0589-0.73815 0.44725-1.6221 0.6487-2.6624 0.60435-0.57052-0.02256-1.1185-0.12328-1.6552-0.32473-0.5367-0.19018-1.0178-0.5149-1.4432-0.97343-0.42545-0.45852-0.7607-1.0741-1.0178-1.8574-0.25708-0.78325-0.38035-1.7897-0.38035-3.0097v-7.9881c0-0.79452 0.07817-1.365 0.23528-1.7003 0.15635-0.336 0.39162-0.55925 0.6938-0.6487 0.30218-0.10072 0.65998-0.15635 1.0742-0.1789v-1.913l0.03383 0.02255zm28.502 6.4998v-6.7689h-2.2039l0.11195 1.1861c-0.63743-0.4698-1.4094-0.81632-2.3047-1.0403-0.89525-0.23528-1.7228-0.34652-2.4723-0.34652-1.2418 0-2.2934 0.1789-3.1435 0.52618-0.85015 0.34652-1.5327 0.79453-2.0356 1.3538-0.5149 0.54798-0.8727 1.1523-1.1072 1.801-0.224 0.6487-0.33525 1.2756-0.33525 1.8687 0 0.95088 0.15635 1.7898 0.48108 2.5174 0.32472 0.72687 0.77198 1.3651 1.3538 1.9356 0.5818 0.55925 1.2748 1.0629 2.0581 1.4988 0.78325 0.43597 1.6221 0.85015 2.5279 1.2305 0.7156 0.2909 1.4207 0.59308 2.1145 0.89525 0.68252 0.31345 1.2643 0.6938 1.7228 1.1298 0.45853 0.44725 0.69381 1.0072 0.69381 1.689 0 0.48108-0.14512 0.92832-0.42546 1.3538-0.27962 0.41418-0.68252 0.74942-1.1854 0.99597-0.5149 0.2458-1.1072 0.38035-1.7785 0.38035-1.32 0-2.461-0.41418-3.4119-1.2305-0.95088-0.8276-1.5657-2.0476-1.8236-3.6697h-1.8679v6.7907h2.1814l-0.08946-1.2192c0.77198 0.4698 1.5996 0.81708 2.4723 1.0629 0.8727 0.2458 1.689 0.3578 2.4497 0.3578 1.4545 0 2.7181-0.2458 3.8035-0.73815 1.0854-0.49235 1.9243-1.1862 2.5279-2.0694 0.60435-0.89525 0.90578-1.9018 0.90578-3.0541 0-0.95088-0.20145-1.7785-0.59308-2.4836-0.39162-0.70508-0.91703-1.3312-1.5552-1.8574-0.63743-0.5367-1.3425-0.99598-2.0919-1.3763-0.74943-0.39163-1.4876-0.72688-2.2039-1.0178-1.0403-0.44725-1.8905-0.86143-2.573-1.253-0.68252-0.39163-1.1854-0.8058-1.5101-1.253-0.33525-0.44725-0.49235-0.96215-0.49235-1.5665 0-0.73815 0.30218-1.3312 0.91705-1.801 0.61487-0.45852 1.32-0.6938 2.1363-0.6938 0.88398-0.02254 1.6665 0.15635 2.3377 0.52618 0.67125 0.36907 1.2192 0.91705 1.6552 1.6447s0.73814 1.6334 0.90576 2.7188h1.8679l-0.02251-0.02256zm21.108 0.05561-0.16763-6.5562h-17.148l-0.14512 6.5562h1.8679c0-1.5665 0.31345-2.7188 0.9396-3.457s1.4763-1.1185 2.5505-1.1298h1.2974v13.906c0 0.77197-0.07819 1.3312-0.2458 1.6785-0.15636 0.34652-0.39163 0.57053-0.68252 0.67125-0.2909 0.10072-0.65998 0.15635-1.0847 0.1789v1.913h8.2662v-2.2378c-0.19018 0-0.5367 0-1.0291 0.01125-0.50363 0-0.90578 0.03383-1.2305 0.07817 0.03376-0.2458 0.06693-0.61563 0.08944-1.1072 0.02251-0.48107 0.03377-0.9847 0.03377-1.5101v-13.615h1.3538c0.7156-0.02254 1.3312 0.14507 1.8566 0.48108 0.52542 0.336 0.91705 0.85015 1.208 1.5439 0.27962 0.68253 0.42469 1.5552 0.42469 2.5956h1.8679-0.0225z" fill="#036"/>
  <path d="m116.59 28.168v-7.0598h-2.1814l0.11195 2.5286h-3.3112v-4.3522c0-0.7607 0.0782-1.3087 0.22399-1.6672 0.14512-0.3578 0.36908-0.59308 0.64871-0.6938 0.27963-0.112 0.62615-0.15635 1.0178-0.15635l1.0178-0.03383c0.5149-0.02254 1.029 0.0669 1.5552 0.2458 0.52543 0.19018 0.97343 0.54797 1.3312 1.0854 0.35779 0.54798 0.53668 1.3425 0.53668 2.4054h1.8679l-0.16763-5.6383h-14.15v2.2378c0.20145-0.02256 0.5367-0.03383 0.99523-0.04509 0.44725 0 0.82759-0.02256 1.1298-0.04509-0.0225 0.25707-0.0452 0.61563-0.0669 1.1072-0.0338 0.48108-0.045 0.9847-0.045 1.5101v11.12c0 0.77198-0.0782 1.3312-0.2458 1.689-0.15635 0.34652-0.39163 0.57052-0.68252 0.67125-0.2909 0.10072-0.65998 0.15635-1.0854 0.1789v1.913h14.945l0.14512-6.3885h-1.8349c0 1.0403-0.16762 1.8687-0.51489 2.4836-0.33525 0.60435-0.77198 1.0403-1.2974 1.3087-0.52542 0.25708-1.0742 0.39162-1.6447 0.39162h-3.7922c0.0338-0.2458 0.0669-0.60435 0.0894-1.0741 0.0225-0.4698 0.0225-0.96215 0.0225-1.4771v-4.7656l0.73815-0.03383c0.5149-0.02254 0.97343 0.02256 1.3981 0.112 0.42471 0.10073 0.76071 0.32472 1.0065 0.68252 0.2458 0.3578 0.36908 0.9396 0.36908 1.7567h1.8679z" fill="#ae9966"/>
  <path d="m145.16 41.474 4.7431-0.21272c-1.3538 0.05563 2.6173-0.07817 1.5552-0.336-0.21272-0.0669-6.7118-0.08946-8.636-2.1032-0.57052-0.50363-1.7116-1.5778-2.3715-2.1927-0.49236-0.48107-0.9396-0.83887-1.3538-1.0629-0.41419-0.224-0.83888-0.36907-1.2643-0.44725-0.42469-0.07817-0.90577-0.112-1.4545-0.112 1.0516-0.42545 1.9799-0.99598 2.785-1.7228 0.80503-0.72688 1.465-1.544 1.9912-2.4723 0.52543-0.91705 0.92833-1.8792 1.1854-2.8752 0.26834-0.99598 0.4029-1.9799 0.4029-2.9421 0-1.2192-0.19018-2.4497-0.57052-3.6922-0.38035-1.2418-0.96216-2.3828-1.7559-3.4344-0.79452-1.0516-1.8123-1.9018-3.0541-2.5399-1.2418-0.63742-2.7294-0.96215-4.4409-0.96215-1.7116 0-3.1435 0.32473-4.3853 0.96215-1.2418 0.63742-2.2821 1.4771-3.0984 2.5286-0.81633 1.0516-1.432 2.1927-1.8349 3.4457s-0.60435 2.4836-0.60435 3.7028c0 1.2192 0.17891 2.4835 0.52543 3.7479 0.34652 1.253 0.89526 2.4054 1.6552 3.4457 0.74942 1.0403 1.7454 1.8687 2.9533 2.4948 1.2192 0.62615 2.6955 0.9396 4.4297 0.9396 0.79452 0 1.4763 0.21272 2.0356 0.62615 0.57052 0.41418 1.141 0.95088 1.7116 1.5996 0.57053 0.6487 1.2643 1.3425 2.0468 2.0806 0.52542 0.4698 0.70506 0.5818 1.1072 0.8058 1.8454 0.96215 3.602 0.7607 4.4748 0.7607h1.2192v-0.03383zm-14.732-8.827c-0.72688-0.55925-1.3087-1.2974-1.7454-2.2039-0.43598-0.90653-0.74942-1.8792-0.95087-2.909-0.20145-1.029-0.30218-1.9912-0.30218-2.909 0-0.9178 0.0894-1.8123 0.25708-2.7632 0.16761-0.95088 0.44725-1.8236 0.83886-2.6294 0.38035-0.8058 0.90578-1.4658 1.5658-1.9694 0.65998-0.5149 1.4763-0.78325 2.461-0.79453 0.9847-0.02256 1.8348 0.19017 2.5617 0.62615 0.72688 0.43598 1.32 1.0516 1.801 1.8574 0.4698 0.8058 0.81632 1.7567 1.0516 2.8639 0.22401 1.1072 0.33525 2.3272 0.33525 3.6584 0 0.89525-0.0894 1.801-0.26835 2.7406-0.17889 0.9396-0.4698 1.801-0.86143 2.5956-0.40288 0.79452-0.92832 1.4432-1.5883 1.9356-0.65996 0.49235-1.4763 0.73815-2.461 0.73815-1.0742 0-1.98-0.27962-2.7068-0.83888" fill="#ae9966"/>
 </g>
</svg>
